# xmcd CD database file
#
# Track frame offsets:
#	150
#	17292
#	27387
#	44827
#	56960
#	79532
#	90480
#	104950
#	117100
#	134105
#	144122
#	155825
#	195012
#	206772
#	216337
#
# Disc length: 3138 seconds
#
# Revision: 3
# Processed by: cddbd v1.5.2PL0 Copyright (c) Steve Scherf et al.
# Submitted via: CDex 1.51
#
DISCID=d90c400f
DTITLE=Dinah Washington - Back To The Blues
DYEAR=1997
DGENRE=Blues
TTITLE0=The Blues Ain't Nothin' But A Woman Cryin' For Her Man
TTITLE1=Romance In The Dark
TTITLE2=You've Been A Good Old Wagon
TTITLE3=Let Me Be The First To Know
TTITLE4=How Long, How Long Blues
TTITLE5=Don't Come Running Back To Me
TTITLE6=It's A Mean Old Man's World
TTITLE7=Key To The Highway
TTITLE8=If I Never Get To Heaven
TTITLE9=Duck Before You Drown
TTITLE10=No Hard Feelings
TTITLE11=Nobody Knows The Way I Feel This Morning
TTITLE12=Don't Say Nothing At All
TTITLE13=No One Man
TTITLE14=Me and My Gin
EXTD=YEAR: 1997
EXTT0=
EXTT1=
EXTT2=
EXTT3=
EXTT4=
EXTT5=
EXTT6=
EXTT7=
EXTT8=
EXTT9=
EXTT10=
EXTT11=
EXTT12=
EXTT13=
EXTT14=
PLAYORDER=
